# xmcd
#
# Track frame offsets:
#	150
#	20941
#	41903
#	60766
#	81428
#	89753
#	110153
#	127178
#	146040
#	162390
#	185077
#	194227
#	213802
#	239302
#	251864
#	266601
#
# Disc length: 3891 seconds
#
# Revision: 0
# Processed by: cddbd v1.5.2PL0 Copyright (c) Steve Scherf et al.
# Submitted via: EasyCDDAExtractor 11.9.9.666
#
DISCID=050f3110
DTITLE=Various Artist - 红染
DYEAR=2009
DGENRE=
TTITLE0=Suara - adamant faith
TTITLE1=上原 - 梦的延续
TTITLE2=平尺唯 - let‘s Go
TTITLE3=岛 - Super scription of data
TTITLE4=泽野弘之 - BLAZE~Crimson Lotus~
TTITLE5=PENGIN - 朝ANSWER
TTITLE6=一大群人 - 本日，我色满开！
TTITLE7=秋山凌 - Let’s Go
TTITLE8=Kalafina - storia
TTITLE9=高桥样子 - One Little Wish
TTITLE10=泽野弘之 - zipangu
TTITLE11=Superfly - Alright！！
TTITLE12=上户彩 - Smile for...
TTITLE13=大桥 - 悬崖岸上的金鱼公主
TTITLE14=佐藤直纪 - Eureka seveN~主题曲~
TTITLE15=更大一群人 - RE:BRIDGE~RETURN TO ONESELF
EXTD=
EXTT0=
EXTT1=
EXTT2=
EXTT3=
EXTT4=
EXTT5=
EXTT6=
EXTT7=
EXTT8=
EXTT9=
EXTT10=
EXTT11=
EXTT12=
EXTT13=
EXTT14=
EXTT15=
PLAYORDER=
